<?xml version="1.0" standalone="no"?>
<!DOCTYPE svg PUBLIC "-//W3C//DTD SVG 20010904//EN"
 "http://www.w3.org/TR/2001/REC-SVG-20010904/DTD/svg10.dtd">
<svg version="1.0" xmlns="http://www.w3.org/2000/svg"
 width="700.000000pt" height="700.000000pt" viewBox="0 0 700.000000 700.000000"
 preserveAspectRatio="xMidYMid meet">
<metadata>
Created by potrace 1.11, written by Peter Selinger 2001-2013
</metadata>
<g transform="translate(0.000000,700.000000) scale(0.100000,-0.100000)"
fill="#000000" stroke="none">
<path d="M568 5372 c-16 -9 -32 -30 -37 -47 -6 -18 -9 -752 -8 -1797 l2 -1768
28 -27 27 -28 434 0 c453 0 472 2 493 44 4 9 10 790 13 1735 l5 1720 365 0
c201 1 408 -2 460 -6 397 -31 743 -264 923 -623 167 -335 146 -760 -55 -1080
-106 -168 -297 -340 -463 -415 -68 -31 -168 -68 -202 -75 -183 -38 -314 -44
-463 -21 -76 12 -88 12 -115 -3 -31 -17 -56 -70 -48 -101 7 -28 47 -66 443
-430 42 -38 249 -231 291 -270 20 -19 77 -71 125 -115 48 -44 107 -99 131
-122 76 -72 225 -208 242 -219 32 -22 71 -22 102 0 17 12 118 159 245 356 119
184 251 388 293 453 147 226 177 274 341 527 90 140 205 318 255 395 50 77
217 335 370 572 154 238 310 479 347 535 37 57 91 141 121 188 30 47 117 182
193 300 77 118 140 226 141 239 2 31 -22 77 -46 91 -13 7 -361 10 -1046 10
l-1027 0 -29 -29 c-17 -18 -29 -40 -29 -56 0 -37 26 -82 52 -91 13 -5 434 -8
936 -9 584 0 912 -4 913 -10 0 -10 -26 -52 -229 -365 -104 -159 -153 -236
-317 -490 -60 -94 -179 -277 -264 -408 -84 -130 -179 -276 -210 -325 -31 -48
-102 -158 -158 -245 -56 -86 -132 -204 -169 -262 -38 -58 -91 -141 -120 -185
-29 -44 -116 -179 -194 -300 -236 -365 -252 -390 -345 -534 l-91 -139 -44 40
c-25 22 -94 86 -155 143 -60 56 -123 114 -140 129 -16 15 -79 73 -139 129 -60
56 -117 109 -126 117 -9 8 -68 63 -131 121 -63 59 -127 118 -144 132 l-30 26
25 2 c85 4 177 17 266 38 432 105 788 432 929 854 35 104 37 114 56 227 11 66
14 295 5 340 -3 13 -8 42 -11 65 -57 392 -352 782 -726 958 -96 45 -231 89
-310 102 -19 3 -59 9 -89 14 -30 5 -272 10 -537 10 -533 2 -530 2 -552 -60 -8
-23 -11 -515 -11 -1735 l0 -1704 -310 0 -310 0 -1 1710 c-1 941 -2 1713 -4
1718 -8 28 -21 45 -46 57 -36 19 -57 19 -91 -3z"/>
<path d="M6327 5368 c-14 -13 -116 -165 -228 -338 -195 -303 -756 -1172 -924
-1430 -44 -69 -128 -198 -185 -287 -131 -203 -195 -301 -290 -448 -41 -63 -86
-133 -100 -155 -14 -22 -104 -162 -200 -310 -327 -505 -370 -574 -370 -597 0
-38 27 -80 57 -90 17 -5 504 -9 1181 -9 l1154 1 29 33 c25 28 29 39 24 70 -3
24 -15 45 -33 59 l-27 23 -1057 0 c-582 0 -1058 2 -1058 6 0 5 121 192 894
1387 551 851 777 1201 894 1382 60 94 173 268 251 388 128 199 140 222 136
255 -6 47 -44 82 -90 82 -21 0 -43 -8 -58 -22z"/>
</g>
</svg>
