<?xml version="1.0" encoding="UTF-8"?>
<svg width="24px" height="24px" viewBox="0 0 24 24" version="1.1" xmlns="http://www.w3.org/2000/svg" xmlns:xlink="http://www.w3.org/1999/xlink">
    <!-- Generator: Sketch 51.1 (57501) - http://www.bohemiancoding.com/sketch -->
    <title>font-family copy 8</title>
    <desc>Created with Sketch.</desc>
    <defs></defs>
    <g id="font-family-copy-8" stroke="none" stroke-width="1" fill="none" fill-rule="evenodd">
        <path d="M7.768,12.526 L6.274,8.476 L4.816,12.526 L7.768,12.526 Z M5.302,15.946 L5.302,17.26 L1,17.26 L1,15.946 L2.116,15.946 L5.5,7 L7.192,7 L10.576,15.946 L11.692,15.946 L11.692,17.26 L7.282,17.26 L7.282,15.946 L8.308,15.946 L8.848,15.496 L8.236,13.84 L4.33,13.84 L3.736,15.496 L4.276,15.946 L5.302,15.946 Z M13.294,11.5 C13.294,10.024 15.238,9.376 17.02,9.376 C19.198,9.376 20.386,10.51 20.386,12.166 L20.386,15.316 C20.386,15.82 20.53,16.144 20.962,16.144 C21.268,16.144 21.502,15.946 21.988,15.514 L22.69,16.504 C21.934,17.224 21.43,17.512 20.674,17.512 C19.864,17.512 19.108,16.972 18.964,15.964 C18.154,16.72 16.858,17.512 15.454,17.512 C13.96,17.512 12.952,16.792 12.952,15.46 C12.952,14.236 13.906,13.642 15.418,13.264 L18.946,12.274 L18.946,12.112 C18.946,11.104 18.118,10.546 16.804,10.546 C15.904,10.546 15.508,10.636 14.968,10.834 C15.238,10.942 15.508,11.212 15.508,11.68 C15.508,12.22 15.058,12.616 14.428,12.616 C13.78,12.616 13.294,12.184 13.294,11.5 Z M18.946,14.668 L18.946,13.336 L15.724,14.362 C15.094,14.506 14.5,14.776 14.5,15.352 C14.5,15.964 15.004,16.252 15.652,16.252 C16.786,16.252 17.92,15.586 18.946,14.668 Z" id="Aa" fill="#5A5B5C"></path>
    </g>
</svg>