<?xml version="1.0" encoding="UTF-8"?>
<svg width="24px" height="24px" viewBox="0 0 24 24" version="1.1" xmlns="http://www.w3.org/2000/svg" xmlns:xlink="http://www.w3.org/1999/xlink">
    <!-- Generator: Sketch 51.1 (57501) - http://www.bohemiancoding.com/sketch -->
    <title>font-size copy 4</title>
    <desc>Created with Sketch.</desc>
    <defs></defs>
    <g id="font-size-copy-4" stroke="none" stroke-width="1" fill="none" fill-rule="evenodd">
        <g id="Group" transform="translate(3.000000, 6.500000)" fill="#5A5B5C">
            <polygon id="T" points="0 0 9.5 0 9.5 4.50784314 8.08431373 4.50784314 8.08431373 1.9372549 7.50686275 1.35980392 5.53235294 1.35980392 5.53235294 8.68039216 6.10980392 9.25784314 8.25196078 9.25784314 8.25196078 10.6176471 1.24803922 10.6176471 1.24803922 9.25784314 3.39019608 9.25784314 3.96764706 8.68039216 3.96764706 1.35980392 1.99313725 1.35980392 1.41568627 1.9372549 1.41568627 4.50784314 0 4.50784314"></polygon>
            <polygon id="T-Copy" points="12 4.5 17.5 4.5 17.5 7.10980392 16.6803922 7.10980392 16.6803922 5.62156863 16.3460784 5.2872549 15.2029412 5.2872549 15.2029412 9.5254902 15.5372549 9.85980392 16.777451 9.85980392 16.777451 10.6470588 12.722549 10.6470588 12.722549 9.85980392 13.9627451 9.85980392 14.2970588 9.5254902 14.2970588 5.2872549 13.1539216 5.2872549 12.8196078 5.62156863 12.8196078 7.10980392 12 7.10980392"></polygon>
        </g>
    </g>
</svg>